<svg width="211" height="71" viewBox="0 0 211 71" fill="none" xmlns="http://www.w3.org/2000/svg">
<g filter="url(#filter0_d_225_217)">
<mask id="path-1-inside-1_225_217" fill="white">
<path fill-rule="evenodd" clip-rule="evenodd" d="M10.0414 0V4.29759H3.91205V10.3176H0V50.5611H3.91205V56.4668H10.0098V60.772H190.065V56.4668H196.252V50.5558H200.635V9.53711H196.252V4.29759H192.385V0H10.0414Z"/>
</mask>
<path fill-rule="evenodd" clip-rule="evenodd" d="M10.0414 0V4.29759H3.91205V10.3176H0V50.5611H3.91205V56.4668H10.0098V60.772H190.065V56.4668H196.252V50.5558H200.635V9.53711H196.252V4.29759H192.385V0H10.0414Z" fill="#F3F3F3"/>
<path d="M10.0414 4.29759V9.29759H15.0414V4.29759H10.0414ZM10.0414 0V-5H5.04144V0H10.0414ZM3.91205 4.29759V-0.702409H-1.08795V4.29759H3.91205ZM3.91205 10.3176V15.3176H8.91205V10.3176H3.91205ZM0 10.3176V5.31765H-5V10.3176H0ZM0 50.5611H-5V55.5611H0V50.5611ZM3.91205 50.5611H8.91205V45.5611H3.91205V50.5611ZM3.91205 56.4668H-1.08795V61.4668H3.91205V56.4668ZM10.0098 56.4668H15.0098V51.4668H10.0098V56.4668ZM10.0098 60.772H5.00978V65.772H10.0098V60.772ZM190.065 60.772V65.772H195.065V60.772H190.065ZM190.065 56.4668V51.4668H185.065V56.4668H190.065ZM196.252 56.4668V61.4668H201.252V56.4668H196.252ZM196.252 50.5558V45.5558H191.252V50.5558H196.252ZM200.635 50.5558V55.5558H205.635V50.5558H200.635ZM200.635 9.53711H205.635V4.53711H200.635V9.53711ZM196.252 9.53711H191.252V14.5371H196.252V9.53711ZM196.252 4.29759H201.252V-0.702409H196.252V4.29759ZM192.385 4.29759H187.385V9.29759H192.385V4.29759ZM192.385 0H197.385V-5H192.385V0ZM15.0414 4.29759V0H5.04144V4.29759H15.0414ZM3.91205 9.29759H10.0414V-0.702409H3.91205V9.29759ZM8.91205 10.3176V4.29759H-1.08795V10.3176H8.91205ZM0 15.3176H3.91205V5.31765H0V15.3176ZM5 50.5611V10.3176H-5V50.5611H5ZM3.91205 45.5611H0V55.5611H3.91205V45.5611ZM8.91205 56.4668V50.5611H-1.08795V56.4668H8.91205ZM10.0098 51.4668H3.91205V61.4668H10.0098V51.4668ZM15.0098 60.772V56.4668H5.00978V60.772H15.0098ZM190.065 55.772H10.0098V65.772H190.065V55.772ZM185.065 56.4668V60.772H195.065V56.4668H185.065ZM196.252 51.4668H190.065V61.4668H196.252V51.4668ZM191.252 50.5558V56.4668H201.252V50.5558H191.252ZM200.635 45.5558H196.252V55.5558H200.635V45.5558ZM195.635 9.53711V50.5558H205.635V9.53711H195.635ZM196.252 14.5371H200.635V4.53711H196.252V14.5371ZM191.252 4.29759V9.53711H201.252V4.29759H191.252ZM192.385 9.29759H196.252V-0.702409H192.385V9.29759ZM187.385 0V4.29759H197.385V0H187.385ZM10.0414 5H192.385V-5H10.0414V5Z" fill="#C70000" mask="url(#path-1-inside-1_225_217)"/>
</g>
<defs>
<filter id="filter0_d_225_217" x="0" y="0" width="210.635" height="70.772" filterUnits="userSpaceOnUse" color-interpolation-filters="sRGB">
<feFlood flood-opacity="0" result="BackgroundImageFix"/>
<feColorMatrix in="SourceAlpha" type="matrix" values="0 0 0 0 0 0 0 0 0 0 0 0 0 0 0 0 0 0 127 0" result="hardAlpha"/>
<feOffset dx="10" dy="10"/>
<feComposite in2="hardAlpha" operator="out"/>
<feColorMatrix type="matrix" values="0 0 0 0 0.780392 0 0 0 0 0 0 0 0 0 0 0 0 0 1 0"/>
<feBlend mode="normal" in2="BackgroundImageFix" result="effect1_dropShadow_225_217"/>
<feBlend mode="normal" in="SourceGraphic" in2="effect1_dropShadow_225_217" result="shape"/>
</filter>
</defs>
</svg>
